# xmcd
#
# Track frame offsets: 
#        150
#        17425
#        33363
#        58552
#        76942
#        91654
#
# Disc length: 1447 seconds
#
# Revision: 0
# Processed by: cddbd v1.5.2PL0 Copyright (c) Steve Scherf et al.
# Submitted via: ExactAudioCopyFreeDBPlugin 1.0
#
DISCID=3305a506
DTITLE=Hello Strangers - Live at Music City Roots
DYEAR=1900
DGENRE=
TTITLE0=Ruined
TTITLE1=Poor Dear
TTITLE2=What You Don't Know
TTITLE3=Holy Unholy
TTITLE4=Rattle to Shake
TTITLE5=What It Takes to Break a Heart
EXTD=
EXTT0=
EXTT1=
EXTT2=
EXTT3=
EXTT4=
EXTT5=
PLAYORDER=
